<svg width="50" height="50" viewBox="0 0 50 50" fill="none" xmlns="http://www.w3.org/2000/svg">
<g clip-path="url(#clip0_98_123)">
<path d="M15.85 0C11.7355 0 8.39999 3.33549 8.39999 7.45C8.39999 11.5645 11.7355 14.9 15.85 14.9H33.2333C37.348 14.9 40.6833 11.5645 40.6833 7.45C40.6833 3.33549 37.348 0 33.2333 0H15.85Z" fill="#BAD4FF"/>
<path d="M33.2333 17.3833C29.1187 17.3833 25.7833 20.7187 25.7833 24.8333C25.7833 28.9479 29.1187 32.2833 33.2333 32.2833C37.348 32.2833 40.6833 28.9479 40.6833 24.8333C40.6833 20.7187 37.348 17.3833 33.2333 17.3833Z" fill="#BAD4FF"/>
<path d="M8.39999 24.8333C8.39999 20.7187 11.7355 17.3833 15.85 17.3833H23.3V32.2833H15.85C11.7355 32.2833 8.39999 28.9479 8.39999 24.8333Z" fill="#BAD4FF"/>
<path d="M15.85 34.7666C11.7355 34.7666 8.39999 38.102 8.39999 42.2166C8.39999 46.3312 11.7355 49.6666 15.85 49.6666C19.9646 49.6666 23.3 46.3312 23.3 42.2166V34.7666H15.85Z" fill="#BAD4FF"/>
</g>
<defs>
<clipPath id="clip0_98_123">
<rect width="50" height="50" fill="white"/>
</clipPath>
</defs>
</svg>
