<svg width="50" height="50" viewBox="0 0 50 50" fill="none" xmlns="http://www.w3.org/2000/svg">
<path d="M3.76445 0C3.30492 0 2.96252 0.37448 3.0033 0.832178L6.87743 44.2871C6.91821 44.7448 7.31374 45.2198 7.75673 45.3428L24.1966 49.9074C24.6394 50.0304 25.364 50.0304 25.807 49.9078L42.2968 45.3356C42.7396 45.2128 43.1356 44.7377 43.1764 44.2802L47.0569 0.832178C47.098 0.37448 46.7553 0 46.2957 0H3.76445ZM38.8065 9.96625C38.7699 10.3745 38.7066 11.0832 38.6658 11.5409L38.5637 12.681C38.5226 13.1385 38.4641 13.7929 38.4332 14.135C38.4024 14.4772 38.3732 14.7571 38.3678 14.7571C38.3627 14.7571 37.9823 14.7571 37.5228 14.7571H25.8656C25.4061 14.7571 25.0263 14.7571 25.0212 14.7571C25.0162 14.7571 24.6361 14.7571 24.1765 14.7571H18.0371C17.5776 14.7571 17.2352 15.1316 17.276 15.5893L17.6341 19.5923C17.6749 20.0498 18.0844 20.4244 18.544 20.4244H24.1767C24.6362 20.4244 25.0164 20.4244 25.0214 20.4244C25.0264 20.4244 25.4063 20.4244 25.8658 20.4244H35.5476C36.0072 20.4244 36.7184 20.4244 37.1279 20.4244C37.5372 20.4244 37.842 20.7585 37.8049 21.1667C37.7676 21.575 37.7039 22.2838 37.6632 22.7413L36.5116 35.6464C36.4705 36.1041 36.4186 36.6888 36.3962 36.9458C36.3733 37.2027 35.9925 37.5133 35.5496 37.6361L25.8354 40.3297C25.3925 40.4524 25.0246 40.554 25.0177 40.5555C25.0109 40.557 24.6431 40.4575 24.2001 40.3347L14.4755 37.6363C14.0327 37.5135 13.637 37.0384 13.5962 36.5807L12.9702 29.5548C12.9294 29.0971 13.2722 28.7227 13.7317 28.7227H14.6192C15.0787 28.7227 15.8307 28.7227 16.2902 28.7227H17.6137C18.0732 28.7227 18.4825 29.0971 18.5236 29.5548L18.7691 32.3052C18.8098 32.7629 19.206 33.2353 19.6499 33.3551L24.1986 34.5835C24.6421 34.7033 25.0067 34.8014 25.0087 34.8014C25.0107 34.8014 25.3752 34.7031 25.8188 34.5833L30.3758 33.3519C30.8192 33.2321 31.2158 32.7596 31.2569 32.302L31.751 26.7916C31.7921 26.3339 31.4497 25.9594 30.9902 25.9594H25.8658C25.4063 25.9594 25.0264 25.9594 25.0214 25.9594C25.0164 25.9594 24.6362 25.9594 24.1767 25.9594H13.4839C13.0244 25.9594 12.6151 25.5848 12.5743 25.1273L11.3618 11.5407C11.3211 11.083 11.2577 10.3745 11.2211 9.96608C11.1849 9.55784 11.5309 9.2238 11.9905 9.2238H24.1767C24.6362 9.2238 25.0164 9.2238 25.0214 9.2238C25.0264 9.2238 25.4063 9.2238 25.8658 9.2238H38.0373C38.4967 9.2238 38.8429 9.55784 38.8065 9.96625Z" fill="#BAD4FF"/>
</svg>
