<svg width="50" height="50" viewBox="0 0 50 50" fill="none" xmlns="http://www.w3.org/2000/svg">
<path d="M0 0V50H50V0H0ZM27.2107 38.9946C27.2107 43.8607 24.3536 46.0821 20.1911 46.0821C16.4304 46.0821 14.2536 44.1411 13.1375 41.7857L16.9661 39.475C17.7036 40.7804 18.3732 41.8857 19.9911 41.8857C21.5304 41.8857 22.5125 41.2821 22.5125 38.9286V22.9571H27.2107V38.9946ZM38.325 46.0821C33.9607 46.0821 31.1375 44.0071 29.7643 41.2821L33.5929 39.0732C34.5982 40.7143 35.9143 41.9304 38.225 41.9304C40.1661 41.9304 41.4179 40.9589 41.4179 39.6089C41.4179 38.0018 40.1446 37.4321 37.9911 36.4839L36.8196 35.9821C33.4268 34.5429 31.1839 32.7232 31.1839 28.8946C31.1839 25.3679 33.8732 22.6893 38.0589 22.6893C41.05 22.6893 43.1929 23.7268 44.7339 26.45L41.0732 28.7946C40.2696 27.3554 39.3982 26.7857 38.0482 26.7857C36.6768 26.7857 35.8054 27.6571 35.8054 28.7946C35.8054 30.2018 36.6768 30.7696 38.6964 31.6518L39.8679 32.1536C43.8643 33.8607 46.1071 35.6143 46.1071 39.5411C46.1071 43.7607 42.7804 46.0804 38.3268 46.0804L38.325 46.0821Z" fill="#BAD4FF"/>
</svg>
