<svg width="50" height="50" viewBox="0 0 50 50" fill="none" xmlns="http://www.w3.org/2000/svg">
<path d="M29.4482 24.9517C29.4482 27.4165 27.45 29.4147 24.9852 29.4147C22.5204 29.4147 20.5222 27.4165 20.5222 24.9517C20.5222 22.4869 22.5204 20.4888 24.9852 20.4888C27.45 20.4888 29.4482 22.4869 29.4482 24.9517Z" fill="#BAD4FF"/>
<path d="M24.9833 35.174C24.6111 35.1833 24.1722 35.1889 23.7315 35.1889C18.5259 35.1889 13.5055 34.4018 8.78147 32.9407L9.13888 33.0352C6.63703 32.2277 4.46851 31.037 2.58147 29.5111L2.62036 29.5407C1.15925 28.4833 0.175919 26.8463 0.00925236 24.9722L0.00740051 24.9481C0.00740051 21.9963 3.24259 19.1074 8.67592 17.2222C13.3278 15.6907 18.6815 14.8074 24.2407 14.8074C24.4981 14.8074 24.7556 14.8092 25.013 14.8129H24.9741C25.1889 14.8092 25.4407 14.8074 25.6944 14.8074C31.1852 14.8074 36.4722 15.6759 41.4278 17.2833L41.0667 17.1814C43.4833 17.9666 45.5815 19.1 47.4241 20.5407L47.3796 20.5074C48.8148 21.5185 49.7833 23.1074 49.9463 24.9277L49.9481 24.9518C49.9481 28.0185 46.3296 31.1222 40.4981 33.0518C36.1222 34.4018 31.0907 35.1796 25.8778 35.1796C25.563 35.1796 25.25 35.1759 24.937 35.1703H24.9833V35.174ZM24.9833 16.9518C24.787 16.9481 24.5537 16.9481 24.3204 16.9481C18.9852 16.9481 13.8463 17.7852 9.02592 19.3352L9.37962 19.237C4.38333 20.9796 2.14259 23.3629 2.14259 24.9537C2.14259 26.6074 4.55184 29.2129 9.83333 31.0166C13.9981 32.3074 18.7852 33.0518 23.7463 33.0518C24.1815 33.0518 24.6148 33.0463 25.0463 33.0352L24.9833 33.037C25.2537 33.0426 25.5722 33.0463 25.8907 33.0463C30.8611 33.0463 35.6574 32.3055 40.1778 30.9296L39.8315 31.0203C45.313 29.1981 47.8315 26.5926 47.8315 24.9463C47.6426 23.7648 46.9759 22.7685 46.0426 22.1407L46.0278 22.1314C44.4241 20.8833 42.5537 19.8777 40.5278 19.2166L40.3981 19.1796C36.013 17.7611 30.9667 16.9426 25.7315 16.9426C25.4685 16.9426 25.2074 16.9444 24.9463 16.9481H24.9852L24.9833 16.9518Z" fill="#BAD4FF"/>
<path d="M14.8574 47.1963C14.8278 47.1963 14.7926 47.1982 14.7593 47.1982C13.9204 47.1982 13.1333 46.9778 12.4537 46.5926L12.4778 46.6056C9.92592 45.1241 9.03703 40.8797 10.1074 35.2334C11.3981 29.4408 13.4907 24.3186 16.3 19.6778L16.1722 19.9074C18.9481 14.9908 22.3018 10.7852 26.2185 7.18152L26.2555 7.14818C27.9648 5.58522 29.9648 4.30189 32.1574 3.39263L32.2926 3.34263C33.0463 2.97967 33.9315 2.76855 34.8667 2.76855C35.7944 2.76855 36.6741 2.97781 37.4593 3.35004L37.4222 3.33522C40.0796 4.86485 40.9611 9.55744 39.7148 15.5686C38.3815 21.063 36.3481 25.9019 33.6741 30.3074L33.8037 30.0797C31.1148 34.95 27.8611 39.1204 24.0518 42.7074L24.0259 42.7315C22.2518 44.3556 20.1685 45.676 17.8759 46.5871L17.7389 46.6352C16.887 46.9704 15.9018 47.176 14.8704 47.2H14.8593L14.8574 47.1963ZM17.0889 20.4426L18.013 20.976C15.4555 25.1982 13.4481 30.0982 12.2611 35.3093L12.1981 35.6426C11.2111 40.8445 12.163 43.9723 13.5315 44.7648C13.8852 44.9537 14.3037 45.063 14.7481 45.063C14.7852 45.063 14.8241 45.063 14.8611 45.0611H14.8555C16.6241 45.0611 19.4074 43.9408 22.6259 41.1315C26.2852 37.6741 29.3926 33.6815 31.8333 29.2723L31.9593 29.0223C34.4 25.0297 36.35 20.4056 37.5611 15.4908L37.6315 15.1537C38.7963 9.49078 37.7907 6.02411 36.3611 5.19448C35.9204 5.02041 35.4093 4.92041 34.8759 4.92041C34.2018 4.92041 33.5648 5.08152 33.0018 5.36485L33.0259 5.35374C30.9555 6.21485 29.1778 7.36485 27.6426 8.77226L27.6555 8.76115C23.8759 12.2445 20.6704 16.2741 18.1444 20.7389L18.0167 20.9834L17.0889 20.4426Z" fill="#BAD4FF"/>
<path d="M35.1111 47.2221C32.6926 47.2221 29.6296 45.7647 26.4259 43.0073C22.3982 39.3351 18.987 35.0777 16.3074 30.3518L16.1741 30.0981C13.5259 25.7481 11.45 20.6999 10.2204 15.3295L10.1537 14.9869C9.85371 13.674 9.68149 12.1684 9.68149 10.6221C9.68149 9.64621 9.75001 8.6888 9.88149 7.74991L9.86852 7.85732C10.0259 6.00917 10.9945 4.41658 12.4093 3.41473L12.4278 3.40176C15.0759 1.86473 19.5852 3.44621 24.1722 7.52769C27.9167 11.0721 31.113 15.1444 33.65 19.6388L33.7833 19.8944C36.4278 24.1481 38.5185 29.0814 39.787 34.3351L39.8574 34.6795C40.1593 35.9925 40.3333 37.5018 40.3333 39.0499C40.3333 40.1184 40.2519 41.1666 40.0926 42.1907L40.1074 42.0758C39.9167 43.9684 38.9148 45.5962 37.4611 46.624L37.4407 46.6369C36.7963 47.0055 36.0259 47.2221 35.2056 47.2221C35.1722 47.2221 35.1389 47.2221 35.1056 47.2203H35.1111V47.2221ZM18.0222 29.0314C20.7222 33.7925 23.9796 37.8666 27.7833 41.3573L27.8204 41.3907C31.8315 44.8407 35.013 45.5869 36.3907 44.7869C37.8222 43.961 38.8704 40.5721 37.787 35.0962C36.487 29.7444 34.4778 25.0332 31.8259 20.761L31.9463 20.9684C29.3926 16.4203 26.3407 12.5203 22.7833 9.14621L22.7611 9.12584C18.4389 5.2851 14.937 4.42213 13.5056 5.24806C12.6296 5.96102 12.0537 7.01102 11.9778 8.19806V8.21102C11.8759 8.93324 11.8185 9.76658 11.8185 10.6147C11.8185 12.0166 11.9778 13.3795 12.2778 14.6907L12.2537 14.5684C13.5 20.0351 15.4889 24.8629 18.1463 29.2425L18.0241 29.0258L18.0222 29.0314Z" fill="#BAD4FF"/>
</svg>
