<svg width="50" height="50" viewBox="0 0 50 50" fill="none" xmlns="http://www.w3.org/2000/svg">
<path d="M23.5785 7.02337C21.2229 6.90116 18.5745 7.25604 15.9838 8.14013C11.8669 9.54419 7.41426 11.7526 4.21246 14.6295C0.408973 18.0536 -0.20113 21.0336 0.0488803 22.2804C0.938917 26.7023 7.28298 29.587 9.82142 31.7201C9.69642 31.7873 9.57985 31.8451 9.46984 31.9057C8.19646 32.5135 3.47256 34.9014 2.26251 37.4703C0.895791 40.3833 2.48864 42.4682 3.53535 42.7533C6.80049 43.6249 10.0316 42.1016 11.8267 39.5278C13.6235 36.9523 13.4071 33.5911 12.5787 32.0593C12.5704 32.0363 12.5545 32.0214 12.5461 31.9985C12.8745 31.8101 13.2089 31.6205 13.5455 31.4321C14.1939 31.0635 14.8265 30.727 15.3815 30.4337C15.0682 31.2447 14.8423 32.223 14.724 33.6336C14.584 35.2851 15.2932 37.4217 16.2149 38.2639C16.6216 38.6325 17.1128 38.6414 17.4161 38.6414C18.4945 38.6414 18.9791 37.7854 19.5158 36.7631C20.1792 35.5163 20.7659 34.0688 20.7659 34.0688C20.7659 34.0688 20.0336 37.9855 22.042 37.9855C22.7753 37.9855 23.5106 37.078 23.8389 36.6127V36.6191C23.8389 36.6191 23.851 36.5901 23.891 36.5295C23.9694 36.4165 24.0082 36.3503 24.0082 36.3503V36.3279C24.3049 35.8397 24.9554 34.7217 25.9321 32.8752C27.1972 30.4882 28.4062 27.5058 28.4062 27.5058C28.5229 28.1612 28.6845 28.8077 28.8912 29.4418C29.1096 30.1544 29.5728 30.9359 29.9394 31.6945C29.6428 32.0844 29.4609 32.3089 29.4609 32.3089C29.4609 32.3154 29.4657 32.3216 29.4707 32.3249C29.2357 32.6247 28.9692 32.9462 28.6959 33.2624C27.6959 34.4044 26.5071 35.7128 26.3521 36.0879C26.1637 36.5303 26.2118 36.8595 26.5702 37.1151C26.8352 37.3101 27.3074 37.3399 27.7974 37.3039C28.6958 37.2433 29.3284 37.0318 29.6334 36.8975C30.1951 36.7042 30.7257 36.4382 31.209 36.1039C32.1857 35.4126 32.781 34.421 32.726 33.1152C32.6944 32.3944 32.4498 31.6719 32.1531 30.9969C32.2397 30.8773 32.335 30.7503 32.42 30.6225C33.9667 28.4534 35.161 26.0723 35.161 26.0723C35.2777 26.7276 35.4394 27.3742 35.6461 28.0082C35.8344 28.616 36.2013 29.2841 36.538 29.9378C35.0863 31.0715 34.1852 32.3862 33.8719 33.2496C33.2935 34.8487 33.7494 35.5673 34.6011 35.7327C34.9844 35.8081 35.5291 35.6374 35.9358 35.4736C36.5391 35.2802 37.107 34.9988 37.6221 34.6384C38.5988 33.947 39.5442 32.9796 39.4809 31.6657C39.4575 31.0726 39.2876 30.4791 39.0609 29.909C40.2876 29.4142 41.8796 29.1437 43.9114 29.3682C48.2616 29.8564 49.114 32.469 48.9507 33.5568C48.7873 34.6463 47.8721 35.2549 47.5671 35.4352C47.2621 35.6154 47.1694 35.6832 47.1928 35.8191C47.2311 36.0141 47.3706 36.0058 47.629 35.9599C47.989 35.8993 49.9089 35.0745 49.9956 33.0544C50.1206 30.5032 47.5696 27.697 43.0487 27.717H43.0422C41.4727 27.718 39.9254 28.0639 38.5173 28.7314C38.0556 27.8385 37.5783 27.0572 37.5016 26.4723C37.4083 25.7891 37.3086 25.3841 37.417 24.5747C37.527 23.7638 38.0178 22.6136 38.0094 22.53C38.0011 22.4481 37.8996 22.0358 36.8929 22.0276C35.8862 22.0194 35.0169 22.2153 34.9169 22.4692C34.7385 22.9361 34.6001 23.4145 34.5034 23.9028C34.3234 24.7809 32.4883 27.9203 31.4499 29.557C31.1066 28.918 30.8182 28.3564 30.7565 27.9058C30.6632 27.2226 30.5603 26.8176 30.6686 26.0083C30.7786 25.1973 31.2727 24.0471 31.2644 23.9636C31.256 23.8816 31.1545 23.4694 30.1478 23.4612C29.1411 23.453 28.2702 23.6488 28.1685 23.9028C28.0669 24.1583 27.9568 24.758 27.7551 25.3363C27.5518 25.9146 25.1072 31.1427 24.4672 32.5009C24.1389 33.1922 23.8567 33.748 23.6534 34.1232C23.6217 34.1838 23.6 34.2217 23.585 34.2512C23.6083 34.2135 23.6241 34.1757 23.6241 34.1904C23.4524 34.5132 23.3506 34.6928 23.3506 34.6928V34.6992C23.2173 34.94 23.0691 35.16 22.9991 35.16C22.9524 35.16 22.8502 34.529 23.0218 33.6656C23.3885 31.8487 24.2574 29.0249 24.2491 28.9266C24.2408 28.8742 24.4095 28.3855 23.6762 28.1234C22.9645 27.876 22.7108 28.2898 22.6475 28.2898C22.5841 28.2898 22.5368 28.4402 22.5368 28.4402C22.5368 28.4402 23.3232 25.2563 21.0198 25.2563C19.5814 25.2563 17.5808 26.7729 16.599 28.1458C15.9824 28.4686 14.6463 29.1683 13.2395 29.9122C12.7012 30.1972 12.1482 30.4896 11.6249 30.7665C11.5865 30.7288 11.5542 30.6922 11.5142 30.6545C8.71742 27.7858 3.55465 25.7578 3.77299 21.906C3.85133 20.502 4.3614 16.8175 13.7018 12.3416C21.3588 8.67825 27.4798 9.68286 28.5331 11.9192C30.0482 15.1107 25.259 21.0508 17.3087 21.906C14.2786 22.2288 12.8826 20.9703 12.4843 20.5493C12.0709 20.1069 12.0062 20.0834 11.8495 20.1653C11.5912 20.2996 11.7562 20.691 11.8495 20.9237C12.0845 21.5168 13.1289 22.4457 14.7923 22.9716C16.2541 23.4303 19.6104 23.8154 23.9073 22.2164C28.7342 20.429 32.4214 15.5735 31.3197 11.4072C30.6186 8.76027 27.5045 7.22704 23.5785 7.02337ZM21.0165 27.1347C21.1387 27.1435 21.2294 27.1879 21.2802 27.2722C21.5536 27.7162 20.3305 30.9845 20.0172 31.7201C19.5171 32.8997 18.4615 35.9045 17.8198 35.7455C17.2731 35.6112 16.9358 33.32 17.7091 31.0673C18.0991 29.9336 18.9281 28.5821 19.4214 28.0562C20.0127 27.4197 20.65 27.1081 21.0165 27.1347ZM37.2509 30.8401C37.3426 31.1023 37.3908 31.3776 37.3974 31.6529C37.3891 33.3437 36.1326 33.9731 35.3759 34.2352C35.2192 34.1303 35.2399 33.7761 35.7633 32.6801C35.9666 32.2524 36.4376 31.5315 37.2509 30.8401ZM11.0096 32.7025C11.658 34.9847 11.0337 36.9979 9.51867 38.5838C8.08195 40.0928 6.06554 40.6638 5.19883 40.1838C4.2688 39.6644 4.63641 37.4408 6.40982 35.8319C7.4882 34.8555 8.88018 33.9554 9.80189 33.4C10.0136 33.2804 10.3156 33.0995 10.6906 32.8816C10.7539 32.844 10.785 32.8304 10.785 32.8304C10.855 32.7862 10.9313 32.7483 11.0096 32.7025ZM30.6393 32.9648C30.6393 33.0025 30.6491 33.0422 30.6491 33.0864C30.6391 34.4299 29.2929 35.3371 28.6829 35.6975H28.6894V35.7007C28.4777 35.8056 28.2814 35.8716 28.1881 35.8191C28.1181 35.7815 28.276 35.6399 28.276 35.6399C28.276 35.6399 29.3613 34.5192 29.7897 34.008C30.0397 33.7082 30.3277 33.3548 30.6393 32.9648Z" fill="#BAD4FF"/>
</svg>
